<svg width="31" height="31" viewBox="0 0 31 31" fill="none" xmlns="http://www.w3.org/2000/svg">
<path fill-rule="evenodd" clip-rule="evenodd" d="M15.0858 30.1715C23.4174 30.1715 30.1715 23.4174 30.1715 15.0858C30.1715 6.75412 23.4174 0 15.0858 0C6.75412 0 0 6.75412 0 15.0858C0 23.4174 6.75412 30.1715 15.0858 30.1715ZM15.0858 28.3612C22.4176 28.3612 28.3612 22.4176 28.3612 15.0858C28.3612 7.75392 22.4176 1.81029 15.0858 1.81029C7.75392 1.81029 1.81029 7.75392 1.81029 15.0858C1.81029 22.4176 7.75392 28.3612 15.0858 28.3612Z" fill="#A6CEFF"/>
<path fill-rule="evenodd" clip-rule="evenodd" d="M15.3875 27.1544C21.8862 27.1544 27.1544 21.8862 27.1544 15.3875C27.1544 8.88882 21.8862 3.62061 15.3875 3.62061C8.88882 3.62061 3.62061 8.88882 3.62061 15.3875C3.62061 21.8862 8.88882 27.1544 15.3875 27.1544ZM15.3875 23.5338C19.8866 23.5338 23.5338 19.8866 23.5338 15.3875C23.5338 10.8884 19.8866 7.24116 15.3875 7.24116C10.8884 7.24116 7.24116 10.8884 7.24116 15.3875C7.24116 19.8866 10.8884 23.5338 15.3875 23.5338ZM24.7406 15.3875C24.7406 20.5531 20.5531 24.7406 15.3875 24.7406C10.2219 24.7406 6.0343 20.5531 6.0343 15.3875C6.0343 10.2219 10.2219 6.0343 15.3875 6.0343C20.5531 6.0343 24.7406 10.2219 24.7406 15.3875ZM15.0858 20.5166C18.0851 20.5166 20.5166 18.0851 20.5166 15.0858C20.5166 12.0864 18.0851 9.65488 15.0858 9.65488C12.0864 9.65488 9.65488 12.0864 9.65488 15.0858C9.65488 18.0851 12.0864 20.5166 15.0858 20.5166Z" fill="#A6CEFF"/>
<path fill-rule="evenodd" clip-rule="evenodd" d="M14.8875 7.25626C15.0529 7.24624 15.2196 7.24116 15.3875 7.24116C15.5554 7.24116 15.7221 7.24624 15.8875 7.25626V6.04744C15.7219 6.03872 15.5552 6.0343 15.3875 6.0343C15.2197 6.0343 15.053 6.03872 14.8875 6.04744V7.25626ZM24.7386 15.1891L23.5309 15.1696C23.5328 15.242 23.5338 15.3146 23.5338 15.3875C23.5338 15.6512 23.5212 15.9119 23.4968 16.1692L24.7068 16.1887C24.7292 15.9246 24.7406 15.6574 24.7406 15.3875C24.7406 15.3212 24.7399 15.255 24.7386 15.1891ZM21.7502 22.243L20.9671 21.323C20.7243 21.5513 20.4675 21.7649 20.1981 21.9623L20.9822 22.8836C21.2496 22.6837 21.5059 22.4698 21.7502 22.243ZM15.8875 24.7275V23.5187C15.7221 23.5287 15.5554 23.5338 15.3875 23.5338C15.2196 23.5338 15.0529 23.5287 14.8875 23.5187V24.7275C15.053 24.7362 15.2197 24.7406 15.3875 24.7406C15.5552 24.7406 15.7219 24.7362 15.8875 24.7275ZM6.9479 19.4243L8.07806 18.9881C7.9311 18.6903 7.80181 18.3823 7.69154 18.0654L6.56477 18.5003C6.67631 18.8164 6.80437 19.1248 6.9479 19.4243ZM6.04745 15.8877L7.25748 15.9073C7.24666 15.7354 7.24116 15.5621 7.24116 15.3875C7.24116 15.2262 7.24585 15.066 7.25509 14.9071L6.04743 14.8876C6.04406 14.9516 6.04134 15.0157 6.03926 15.0799L6.0343 15.3875C6.0343 15.5553 6.03872 15.7221 6.04745 15.8877ZM7.91184 12.1454C8.04558 11.8374 8.19779 11.5394 8.36708 11.2526L7.49719 10.734L6.98513 11.5929L7.91184 12.1454ZM9.41154 20.9238L8.68977 21.68L9.41313 22.3704L10.1348 21.6144C9.87984 21.3991 9.63827 21.1684 9.41154 20.9238ZM11.5165 22.5571L11.0131 23.6218L11.9172 24.0492L12.4237 22.9778C12.1114 22.8558 11.8086 22.7151 11.5165 22.5571ZM17.5661 23.2392L17.9319 24.3002L18.8773 23.9742L18.5115 22.9133C18.2053 23.0405 17.8897 23.1496 17.5661 23.2392ZM21.7932 20.4208L22.6743 20.9461L23.1864 20.0872L22.3635 19.5966C22.1901 19.8834 21.9995 20.1586 21.7932 20.4208ZM23.2208 13.1435L24.0155 12.8368L23.6555 11.9039L22.8868 12.2005C23.0167 12.5058 23.1285 12.8205 23.2208 13.1435ZM21.3634 9.85111L22.0852 9.09498L21.3618 8.4045L20.6401 9.16054C20.8951 9.37583 21.1367 9.6065 21.3634 9.85111ZM19.3716 8.28025L19.7618 7.45485L18.8577 7.02747L18.4712 7.84507C18.7814 7.97202 19.082 8.11754 19.3716 8.28025ZM13.2089 7.53574C12.8852 7.62535 12.5696 7.73444 12.2635 7.86167L11.8976 6.80073L12.843 6.47474L13.2089 7.53574ZM10.4202 8.9303L9.73394 8.12396L8.9724 8.77208L9.6667 9.58789C9.90404 9.35376 10.1557 9.13409 10.4202 8.9303Z" fill="white"/>
<path fill-rule="evenodd" clip-rule="evenodd" d="M15.5 22C19.0899 22 22 18.866 22 15C22 11.134 19.0899 8 15.5 8C11.9101 8 9 11.134 9 15C9 18.866 11.9101 22 15.5 22ZM15.3751 20.577C18.3436 20.577 20.7501 17.9854 20.7501 14.7885C20.7501 11.5916 18.3436 9 15.3751 9C12.4065 9 10 11.5916 10 14.7885C10 17.9854 12.4065 20.577 15.3751 20.577Z" fill="white"/>
<circle cx="15" cy="15" r="4" fill="#A6CEFF"/>
</svg>
