<svg width="134" height="122" viewBox="0 0 134 122" fill="none" xmlns="http://www.w3.org/2000/svg">
<path d="M43.5 121C56.5162 90.2125 61.503 81.8175 67.5 78C78.3535 91.3535 83.8514 98.6906 89.5 119.5C72.4019 105.734 62.3108 106.044 43.5 121Z" stroke="#A6CEFF" stroke-width="1.5"/>
<path d="M43 1C56.0162 31.7875 61.003 40.1825 67 44C77.8535 30.6465 83.3514 23.3094 89 2.5C71.9019 16.2658 61.8108 15.9563 43 1Z" stroke="#A6CEFF" stroke-width="1.5"/>
<path d="M1.50004 74.5C33.9367 66.428 44 66 49.0001 66C44.8359 82.6965 43.7519 94.9904 30.5001 112C31.2453 90.0618 24.7539 80.5659 1.50004 74.5Z" stroke="#A6CEFF" stroke-width="1.5"/>
<path d="M133 45.5C100.563 53.5721 90.4182 54.4093 85.4181 54.4093C89.5823 37.7127 90.6664 25.4189 103.918 8.40918C103.173 30.3474 109.746 39.4341 133 45.5Z" stroke="#A6CEFF" stroke-width="1.5"/>
<path d="M26.9918 12C47.4568 38.4288 51.1327 46.4653 53.1487 51.041C22.5 55 23.6819 56.2689 2.77308 51C23.1496 42.8368 30.8165 35.7257 26.9918 12Z" stroke="#A6CEFF" stroke-width="1.5"/>
<path d="M104 109C82.9496 83.0353 81.8348 75.5037 81.2857 68.4159C98.1744 65.1165 106.8 64.6158 127.821 69.416C107.632 78.0326 99.6461 85.3658 104 109Z" stroke="#A6CEFF" stroke-width="1.5"/>
<path d="M14 66.5L14.5 57L49 55.5V61C35 61 27 61.5 14 66.5Z" stroke="#A6CEFF" stroke-width="1.5"/>
<path d="M54.2413 70L63.2371 76.5737L44.0001 109L38.6183 105.458C47.0202 92.6917 51.332 85.0745 54.2413 70Z" stroke="#A6CEFF" stroke-width="1.5"/>
<path d="M78.7798 71L71.4741 76.8965L89.3818 104.03L93.7716 100.837C86.0189 90.1794 81.9879 83.7992 78.7798 71Z" stroke="#A6CEFF" stroke-width="1.5"/>
<path d="M54.3817 49.0302L61.6874 43.1336L43.7797 16L39.3899 19.1934C47.1426 29.8507 51.1736 36.231 54.3817 49.0302Z" stroke="#A6CEFF" stroke-width="1.5"/>
<path d="M118.421 52.5491L117.51 61.8932L85 61.845L85.2552 56.4225C98.4195 57.0422 105.965 56.9033 118.421 52.5491Z" stroke="#A6CEFF" stroke-width="1.5"/>
<path d="M80.2726 48.9999L71.6889 42.3777L90.1675 13L95.3038 16.5956C87.2368 28.1191 83.094 35.0308 80.2726 48.9999Z" stroke="#A6CEFF" stroke-width="1.5"/>
</svg>
