<svg width="180" height="203" viewBox="0 0 180 203" fill="none" xmlns="http://www.w3.org/2000/svg">
<path fill-rule="evenodd" clip-rule="evenodd" d="M29 169C42.8071 169 54 157.807 54 144C54 130.193 42.8071 119 29 119C15.1929 119 4 130.193 4 144C4 157.807 15.1929 169 29 169ZM29 166C41.1503 166 51 156.15 51 144C51 131.85 41.1503 122 29 122C16.8497 122 7 131.85 7 144C7 156.15 16.8497 166 29 166Z" fill="#A6CEFF"/>
<path fill-rule="evenodd" clip-rule="evenodd" d="M28.5 164C39.2696 164 48 155.27 48 144.5C48 133.73 39.2696 125 28.5 125C17.7304 125 9 133.73 9 144.5C9 155.27 17.7304 164 28.5 164ZM28.5 160C37.0604 160 44 153.06 44 144.5C44 135.94 37.0604 129 28.5 129C19.9396 129 13 135.94 13 144.5C13 153.06 19.9396 160 28.5 160Z" fill="#A6CEFF"/>
<path fill-rule="evenodd" clip-rule="evenodd" d="M28.5 159C36.5081 159 43 152.508 43 144.5C43 136.492 36.5081 130 28.5 130C20.4919 130 14 136.492 14 144.5C14 152.508 20.4919 159 28.5 159ZM17.4423 137.288L18.4038 141.135L16.9615 141.615V144.981H17.9231V146.423L16 147.385L16.4808 148.827L18.4038 149.308L18.8846 150.75V152.192L19.8462 153.154L20.8077 153.635L22.7308 154.115V156.519L24.1731 157L24.6538 155.558H27.5385L28.0192 157H28.9808L29.4615 155.558L31.3846 156.038L31.8654 157H33.3077V155.077L34.75 154.115H36.6731V151.231H40.0385V149.308H39.0769V147.385H40.0385V146.423H40.5192L41 144.981H40.0385L39.5577 144.019H38.5962V142.096L40.0385 141.615L40.5192 140.173H38.5962V137.769L37.1538 137.288V136.327H34.75V133.442H33.3077V133.923H30.4231L29.9423 132H28.5V133.442H28.0192L27.0577 134.404H26.0962L25.6154 132.962V132H22.7308L24.1731 132.962V133.923L23.6923 135.365H21.2885L20.8077 136.327C20.6474 136.167 20.2308 135.942 19.8462 136.327C19.4615 136.712 19.0449 137.449 18.8846 137.769L17.4423 137.288Z" fill="#A6CEFF"/>
<path fill-rule="evenodd" clip-rule="evenodd" d="M155 163C168.807 163 180 151.807 180 138C180 124.193 168.807 113 155 113C141.193 113 130 124.193 130 138C130 151.807 141.193 163 155 163ZM155 160C167.15 160 177 150.15 177 138C177 125.85 167.15 116 155 116C142.85 116 133 125.85 133 138C133 150.15 142.85 160 155 160Z" fill="#A6CEFF"/>
<path fill-rule="evenodd" clip-rule="evenodd" d="M154.5 158C165.27 158 174 149.27 174 138.5C174 127.73 165.27 119 154.5 119C143.73 119 135 127.73 135 138.5C135 149.27 143.73 158 154.5 158ZM154.5 154C163.06 154 170 147.06 170 138.5C170 129.94 163.06 123 154.5 123C145.94 123 139 129.94 139 138.5C139 147.06 145.94 154 154.5 154Z" fill="#A6CEFF"/>
<path fill-rule="evenodd" clip-rule="evenodd" d="M154.5 153C162.508 153 169 146.508 169 138.5C169 130.492 162.508 124 154.5 124C146.492 124 140 130.492 140 138.5C140 146.508 146.492 153 154.5 153ZM143.442 131.288L144.404 135.135L142.962 135.615V138.981H143.923V140.423L142 141.385L142.481 142.827L144.404 143.308L144.885 144.75V146.192L145.846 147.154L146.808 147.635L148.731 148.115V150.519L150.173 151L150.654 149.558H153.538L154.019 151H154.981L155.462 149.558L157.385 150.038L157.865 151H159.308V149.077L160.75 148.115H162.673V145.231H166.038V143.308H165.077V141.385H166.038V140.423H166.519L167 138.981H166.038L165.558 138.019H164.596V136.096L166.038 135.615L166.519 134.173H164.596V131.769L163.154 131.288V130.327H160.75V127.442H159.308V127.923H156.423L155.942 126H154.5V127.442H154.019L153.058 128.404H152.096L151.615 126.962V126H148.731L150.173 126.962V127.923L149.692 129.365H147.288L146.808 130.327C146.647 130.167 146.231 129.942 145.846 130.327C145.462 130.712 145.045 131.449 144.885 131.769L143.442 131.288Z" fill="#A6CEFF"/>
<path fill-rule="evenodd" clip-rule="evenodd" d="M155 81C168.807 81 180 69.8071 180 56C180 42.1929 168.807 31 155 31C141.193 31 130 42.1929 130 56C130 69.8071 141.193 81 155 81ZM155 78C167.15 78 177 68.1503 177 56C177 43.8497 167.15 34 155 34C142.85 34 133 43.8497 133 56C133 68.1503 142.85 78 155 78Z" fill="#A6CEFF"/>
<path fill-rule="evenodd" clip-rule="evenodd" d="M155.5 76C166.27 76 175 67.2696 175 56.5C175 45.7304 166.27 37 155.5 37C144.73 37 136 45.7304 136 56.5C136 67.2696 144.73 76 155.5 76ZM155.5 70C162.956 70 169 63.9558 169 56.5C169 49.0442 162.956 43 155.5 43C148.044 43 142 49.0442 142 56.5C142 63.9558 148.044 70 155.5 70ZM171 56.5C171 65.0604 164.06 72 155.5 72C146.94 72 140 65.0604 140 56.5C140 47.9396 146.94 41 155.5 41C164.06 41 171 47.9396 171 56.5ZM155 65C159.971 65 164 60.9706 164 56C164 51.0294 159.971 47 155 47C150.029 47 146 51.0294 146 56C146 60.9706 150.029 65 155 65Z" fill="#A6CEFF"/>
<path fill-rule="evenodd" clip-rule="evenodd" d="M155.5 63C159.09 63 162 59.866 162 56C162 52.134 159.09 49 155.5 49C151.91 49 149 52.134 149 56C149 59.866 151.91 63 155.5 63ZM155.375 61.577C158.344 61.577 160.75 58.9854 160.75 55.7885C160.75 52.5916 158.344 50 155.375 50C152.406 50 150 52.5916 150 55.7885C150 58.9854 152.406 61.577 155.375 61.577Z" fill="white"/>
<circle cx="155" cy="56" r="4" fill="#A6CEFF"/>
<path fill-rule="evenodd" clip-rule="evenodd" d="M25 88C38.8071 88 50 76.8071 50 63C50 49.1929 38.8071 38 25 38C11.1929 38 0 49.1929 0 63C0 76.8071 11.1929 88 25 88ZM25 85C37.1503 85 47 75.1503 47 63C47 50.8497 37.1503 41 25 41C12.8497 41 3 50.8497 3 63C3 75.1503 12.8497 85 25 85Z" fill="#A6CEFF"/>
<path fill-rule="evenodd" clip-rule="evenodd" d="M25.5 83C36.2696 83 45 74.2696 45 63.5C45 52.7304 36.2696 44 25.5 44C14.7304 44 6 52.7304 6 63.5C6 74.2696 14.7304 83 25.5 83ZM25.5 77C32.9558 77 39 70.9558 39 63.5C39 56.0442 32.9558 50 25.5 50C18.0442 50 12 56.0442 12 63.5C12 70.9558 18.0442 77 25.5 77ZM41 63.5C41 72.0604 34.0604 79 25.5 79C16.9396 79 10 72.0604 10 63.5C10 54.9396 16.9396 48 25.5 48C34.0604 48 41 54.9396 41 63.5ZM25 72C29.9706 72 34 67.9706 34 63C34 58.0294 29.9706 54 25 54C20.0294 54 16 58.0294 16 63C16 67.9706 20.0294 72 25 72Z" fill="#A6CEFF"/>
<path fill-rule="evenodd" clip-rule="evenodd" d="M25 50.0091C25.1659 50.003 25.3326 50 25.5 50C25.6674 50 25.8341 50.003 26 50.0091V48.0079C25.834 48.0027 25.6673 48 25.5 48C25.3327 48 25.166 48.0027 25 48.0079V50.0091ZM41 63.4999L39 63.4677C39 63.4784 39 63.4892 39 63.5C39 63.8252 38.9885 64.1478 38.9659 64.4673L40.9683 64.4996C40.9893 64.1691 41 63.8358 41 63.5C41 63.5 41 63.5 41 63.4999ZM35.8009 75.0821L34.5043 73.5586C34.2561 73.781 33.9996 73.9943 33.7353 74.198L35.033 75.7227C35.2959 75.5173 35.552 75.3037 35.8009 75.0821ZM26 78.9921V76.9909C25.8341 76.997 25.6674 77 25.5 77C25.3326 77 25.1659 76.997 25 76.9909V78.9921C25.166 78.9973 25.3327 79 25.5 79C25.6673 79 25.834 78.9973 26 78.9921ZM11.3749 69.8913L13.2447 69.1696C13.1048 68.8679 12.9758 68.5601 12.8582 68.2469L10.9917 68.9672C11.1097 69.2802 11.2376 69.5883 11.3749 69.8913ZM10.0079 64.0002L12.0103 64.0325C12.0035 63.8558 12 63.6783 12 63.5C12 63.3435 12.0027 63.1876 12.0079 63.0323L10.0081 63.0001L10 63.5C10 63.6674 10.0027 63.8341 10.0079 64.0002ZM13.2469 57.8255C13.3879 57.5216 13.5399 57.2238 13.7023 56.9327L12.256 56.0705L11.744 56.9295L13.2469 57.8255ZM15.8233 72.9134L14.6383 74.1548L15.3617 74.8452L16.5465 73.6039C16.297 73.3827 16.0558 73.1523 15.8233 72.9134ZM19.3762 75.5344L18.548 77.2863L19.452 77.7137L20.2833 75.9552C19.975 75.8259 19.6724 75.6854 19.3762 75.5344ZM29.4263 76.4202L30.0273 78.163L30.9727 77.837L30.3717 76.0942C30.062 76.2141 29.7467 76.3229 29.4263 76.4202ZM36.3169 71.5787L37.744 72.4295L38.256 71.5705L36.8872 70.7545C36.7071 71.0365 36.5169 71.3115 36.3169 71.5787ZM38.3869 59.4656L39.68 58.9665L39.32 58.0335L38.0528 58.5226C38.1754 58.8315 38.2869 59.146 38.3869 59.4656ZM35.1767 54.0866L36.3617 52.8452L35.6383 52.1548L34.4535 53.3961C34.703 53.6173 34.9442 53.8477 35.1767 54.0866ZM31.8136 51.5643L32.452 50.2137L31.548 49.7863L30.9132 51.1291C31.2194 51.2633 31.5197 51.4085 31.8136 51.5643ZM21.5737 50.5798C21.2533 50.6771 20.938 50.7859 20.6283 50.9058L20.0273 49.163L20.9727 48.837L21.5737 50.5798ZM17.0102 53.0031L15.8808 51.6759L15.1192 52.3241L16.2567 53.6606C16.4996 53.4324 16.751 53.213 17.0102 53.0031Z" fill="white"/>
<path fill-rule="evenodd" clip-rule="evenodd" d="M25.5 70C29.0899 70 32 66.866 32 63C32 59.134 29.0899 56 25.5 56C21.9101 56 19 59.134 19 63C19 66.866 21.9101 70 25.5 70ZM25.3751 68.577C28.3436 68.577 30.7501 65.9854 30.7501 62.7885C30.7501 59.5916 28.3436 57 25.3751 57C22.4065 57 20 59.5916 20 62.7885C20 65.9854 22.4065 68.577 25.3751 68.577Z" fill="white"/>
<circle cx="25" cy="63" r="4" fill="#A6CEFF"/>
<path fill-rule="evenodd" clip-rule="evenodd" d="M92 203C105.807 203 117 191.807 117 178C117 164.193 105.807 153 92 153C78.1929 153 67 164.193 67 178C67 191.807 78.1929 203 92 203ZM92 200C104.15 200 114 190.15 114 178C114 165.85 104.15 156 92 156C79.8497 156 70 165.85 70 178C70 190.15 79.8497 200 92 200Z" fill="#A6CEFF"/>
<path fill-rule="evenodd" clip-rule="evenodd" d="M92.5 198C103.27 198 112 189.27 112 178.5C112 167.73 103.27 159 92.5 159C81.7304 159 73 167.73 73 178.5C73 189.27 81.7304 198 92.5 198ZM92.5 192C99.9558 192 106 185.956 106 178.5C106 171.044 99.9558 165 92.5 165C85.0442 165 79 171.044 79 178.5C79 185.956 85.0442 192 92.5 192ZM108 178.5C108 187.06 101.06 194 92.5 194C83.9396 194 77 187.06 77 178.5C77 169.94 83.9396 163 92.5 163C101.06 163 108 169.94 108 178.5ZM92 187C96.9706 187 101 182.971 101 178C101 173.029 96.9706 169 92 169C87.0294 169 83 173.029 83 178C83 182.971 87.0294 187 92 187Z" fill="#A6CEFF"/>
<path fill-rule="evenodd" clip-rule="evenodd" d="M92 165.009C92.1659 165.003 92.3326 165 92.5 165C92.6674 165 92.8341 165.003 93 165.009V163.008C92.834 163.003 92.6673 163 92.5 163C92.3327 163 92.166 163.003 92 163.008V165.009ZM108 178.5L106 178.468C106 178.478 106 178.489 106 178.5C106 178.825 105.988 179.148 105.966 179.467L107.968 179.5C107.989 179.169 108 178.836 108 178.5C108 178.5 108 178.5 108 178.5ZM102.801 190.082L101.504 188.559C101.256 188.781 101 188.994 100.735 189.198L102.033 190.723C102.296 190.517 102.552 190.304 102.801 190.082ZM93 193.992V191.991C92.8341 191.997 92.6674 192 92.5 192C92.3326 192 92.1659 191.997 92 191.991V193.992C92.166 193.997 92.3327 194 92.5 194C92.6673 194 92.834 193.997 93 193.992ZM78.3749 184.891L80.2447 184.17C80.1048 183.868 79.9758 183.56 79.8582 183.247L77.9917 183.967C78.1097 184.28 78.2376 184.588 78.3749 184.891ZM77.0079 179L79.0103 179.032C79.0035 178.856 79 178.678 79 178.5C79 178.343 79.0027 178.188 79.0079 178.032L77.0081 178L77 178.5C77 178.667 77.0027 178.834 77.0079 179ZM80.2469 172.825C80.3879 172.522 80.5399 172.224 80.7023 171.933L79.256 171.071L78.744 171.929L80.2469 172.825ZM82.8233 187.913L81.6383 189.155L82.3617 189.845L83.5465 188.604C83.297 188.383 83.0558 188.152 82.8233 187.913ZM86.3762 190.534L85.548 192.286L86.452 192.714L87.2833 190.955C86.975 190.826 86.6724 190.685 86.3762 190.534ZM96.4263 191.42L97.0273 193.163L97.9727 192.837L97.3717 191.094C97.062 191.214 96.7467 191.323 96.4263 191.42ZM103.317 186.579L104.744 187.429L105.256 186.571L103.887 185.754C103.707 186.037 103.517 186.311 103.317 186.579ZM105.387 174.466L106.68 173.966L106.32 173.034L105.053 173.523C105.175 173.832 105.287 174.146 105.387 174.466ZM102.177 169.087L103.362 167.845L102.638 167.155L101.453 168.396C101.703 168.617 101.944 168.848 102.177 169.087ZM98.8136 166.564L99.452 165.214L98.548 164.786L97.9132 166.129C98.2194 166.263 98.5197 166.409 98.8136 166.564ZM88.5737 165.58C88.2533 165.677 87.938 165.786 87.6283 165.906L87.0273 164.163L87.9727 163.837L88.5737 165.58ZM84.0102 168.003L82.8808 166.676L82.1192 167.324L83.2567 168.661C83.4996 168.432 83.751 168.213 84.0102 168.003Z" fill="white"/>
<path fill-rule="evenodd" clip-rule="evenodd" d="M92.5 185C96.0899 185 99 181.866 99 178C99 174.134 96.0899 171 92.5 171C88.9101 171 86 174.134 86 178C86 181.866 88.9101 185 92.5 185ZM92.3751 183.577C95.3436 183.577 97.7501 180.985 97.7501 177.789C97.7501 174.592 95.3436 172 92.3751 172C89.4065 172 87 174.592 87 177.789C87 180.985 89.4065 183.577 92.3751 183.577Z" fill="white"/>
<circle cx="92" cy="178" r="4" fill="#A6CEFF"/>
<path fill-rule="evenodd" clip-rule="evenodd" d="M91 50C104.807 50 116 38.8071 116 25C116 11.1929 104.807 0 91 0C77.1929 0 66 11.1929 66 25C66 38.8071 77.1929 50 91 50ZM91 47C103.15 47 113 37.1503 113 25C113 12.8497 103.15 3 91 3C78.8497 3 69 12.8497 69 25C69 37.1503 78.8497 47 91 47Z" fill="#A6CEFF"/>
<path fill-rule="evenodd" clip-rule="evenodd" d="M90.5 45C101.27 45 110 36.2696 110 25.5C110 14.7304 101.27 6 90.5 6C79.7304 6 71 14.7304 71 25.5C71 36.2696 79.7304 45 90.5 45ZM90.5 41C99.0604 41 106 34.0604 106 25.5C106 16.9396 99.0604 10 90.5 10C81.9396 10 75 16.9396 75 25.5C75 34.0604 81.9396 41 90.5 41Z" fill="#A6CEFF"/>
<path fill-rule="evenodd" clip-rule="evenodd" d="M90.5 40C98.5081 40 105 33.5081 105 25.5C105 17.4919 98.5081 11 90.5 11C82.4919 11 76 17.4919 76 25.5C76 33.5081 82.4919 40 90.5 40ZM79.4423 18.2885L80.4038 22.1346L78.9615 22.6154V25.9808H79.9231V27.4231L78 28.3846L78.4808 29.8269L80.4038 30.3077L80.8846 31.75V33.1923L81.8462 34.1538L82.8077 34.6346L84.7308 35.1154V37.5192L86.1731 38L86.6538 36.5577H89.5385L90.0192 38H90.9808L91.4615 36.5577L93.3846 37.0385L93.8654 38H95.3077V36.0769L96.75 35.1154H98.6731V32.2308H102.038V30.3077H101.077V28.3846H102.038V27.4231H102.519L103 25.9808H102.038L101.558 25.0192H100.596V23.0962L102.038 22.6154L102.519 21.1731H100.596V18.7692L99.1538 18.2885V17.3269H96.75V14.4423H95.3077V14.9231H92.4231L91.9423 13H90.5V14.4423H90.0192L89.0577 15.4038H88.0962L87.6154 13.9615V13H84.7308L86.1731 13.9615V14.9231L85.6923 16.3654H83.2885L82.8077 17.3269C82.6474 17.1667 82.2308 16.9423 81.8462 17.3269C81.4615 17.7115 81.0449 18.4487 80.8846 18.7692L79.4423 18.2885Z" fill="#A6CEFF"/>
</svg>
