<svg width="351" height="353" viewBox="0 0 351 353" fill="none" xmlns="http://www.w3.org/2000/svg">
<g opacity="0.5" filter="url(#filter0_d_10_28)">
<path d="M179.111 53.5437C180.026 50.8665 171.159 51.9695 170.993 51.0948C170.827 50.22 168.55 50.4154 169.434 52.2544C170.317 54.0933 171.969 54.3618 170.244 54.6467C168.518 54.9316 171.917 56.8965 171.917 56.8965L170.378 60.0376L171.189 62.4299C171.189 62.4299 173.351 60.8185 175.284 63.3777C177.217 65.9368 177.434 61.0166 177.779 61.5223C178.123 62.028 181.253 54.9542 178.487 54.0075M75.3677 95.7522L83.4534 102.717L82.2992 105.073L76.458 102.429M76.458 102.429L74.5344 106.355L71.1562 106.371L71.4271 102.177M76.458 102.429L71.4271 102.177M71.4271 102.177L74.6711 96.7694M64.2788 147.924L64.3197 148.691M64.7658 157.046L53.6957 157.791M64.7658 157.046L64.3197 148.691M64.7658 157.046L59.7759 160.757M53.6957 157.791L54.7884 149.491L59.5074 149.975L64.3197 148.691M53.6957 157.791L52.6348 161.575M59.7759 160.757L61.8223 168.719L53.5999 171.34L52.6348 161.575M59.7759 160.757L52.6348 161.575M82.2225 257.373L89.4889 253.467L90.4449 254.753M90.4449 254.753L95.7148 255.326L98.344 258.861L94.383 263.305L93.3222 267.088L91.7628 268.248L90.2354 264.891L87.8248 259.696L90.4449 254.753ZM165.06 290.61L156.101 290.285L152.545 295.924L155.672 302.084L162.044 302.836L164.113 297.803M165.06 290.61L164.113 297.803M165.06 290.61L172.96 294.719L172.345 303.661L166.597 302.445L164.113 297.803M259.998 255.448L259.485 256.061M259.485 256.061L253.324 263.407L255.495 268.281L260.692 269.408L268.343 264.716L265.475 260.859L259.485 256.061ZM269.625 244.296L263.388 248.934L265.102 255.147L271.036 259.22L273.937 258.56L277.635 254.312L277.69 249.28L272.732 248.474L269.625 244.296ZM269.625 244.296L269.2 241.118M262.852 90.6007L255.991 95.703L254.91 97.5055L262.902 103.042L267.487 98.1355L263.403 90.6902M242.201 76.508L242.076 79.5961L240.225 82.969M236.339 71.8823L239.207 75.7392L238.458 79.2911L236.992 81.8788L232.273 81.3949L227.7 79.8042L230.725 76.0569L233.054 73.3268L233.585 71.4349M194.203 54.2997L193.297 65.4559L195.428 66.3671L196.573 55.5324L194.203 54.2997ZM189.006 53.173L186.158 51.2975L183.975 52.9209L182.562 52.9739L182.914 56.7048L181.781 61.042L182.976 62.649L188.412 64.0972L191.125 60.5818L188.018 56.4035L188.07 53.8687L189.006 53.173ZM160.952 52.5721L159.611 52.0718L157.428 53.6952L158.311 55.5342L158.789 56.177L155.318 54.7654L153.685 56.4783L154.091 57.6745L153.706 58.4597L154.184 59.1026L155.047 58.9601L155.714 59.2062L156.387 59.4605L157.25 59.3181L158.04 59.7289L158.591 59.8184L158.757 60.6932L158.539 62.3532L158.632 63.7813L159.349 64.7455L160.212 64.603L162.488 64.4076L164.047 63.248L164.765 64.2122L167.02 62.0354L166.927 60.6073L167.385 59.2688L163.353 53.8479L162.263 54.3357C162.193 53.8075 161.943 52.7332 161.503 52.6616L160.952 52.5721ZM149.975 54.7453L145.495 54.5828L145.037 55.9213L146.71 58.1712L147.375 61.6702L147.396 63.6516L147.011 64.4368L147.605 65.2362L150.077 64.6523L153.123 62.8864L152.864 60.5836L149.829 55.852L149.975 54.7453ZM134.996 57.3987L137.22 59.7381L137.043 65.3609L138.477 67.2893L140.307 61.935L138.301 57.9356L134.996 57.3987ZM133 61.8783L126.847 59.4659L124.352 61.3214L121.046 60.7844L121.014 65.3006L123.186 70.1747L125.244 71.6393L130.805 69.9994L133 61.8783ZM114.955 64.3163C115.337 64.8305 117.996 69.7084 119.277 72.083L117.427 75.456L115.888 78.597L112.749 78.9349L106.866 72.3277L105.1 68.6498L114.955 64.3163ZM101.669 71.201L92.6252 77.9268L98.8193 84.302L103.871 86.5354L104.328 85.1969L104.485 77.5926L101.669 71.201ZM87.822 84.4938L91.1682 88.9935L95.1701 88.5132L94.5145 93.4932L92.3314 95.1167L85.6389 86.1172L87.822 84.4938ZM82.5611 92.3993L80.2323 95.1294L82.6954 97.7902L84.5871 98.3801L86.3445 93.579L82.5611 92.3993ZM67.4138 109.155L64.0765 113.134L68.7431 116.152L72.8064 121.616L75.7794 120.404L76.6536 113.764L79.8452 110.891L76.6856 109.248L72.0075 112.727L67.4138 109.155ZM61.5701 121.487L57.7229 129.339L67.3475 133.163L70.5914 127.756L68.0787 124.377L61.5701 121.487ZM63.1517 175.717L54.0051 172.536L51.1983 174.623L50.8955 183.334L62.9217 183.875L61.2805 177.109L63.1517 175.717ZM58.5031 189.656L59.803 186.194L55.8739 186.121L54.6264 187.049L56.0606 188.977L58.5031 189.656ZM63.8868 193.639L59.4592 190.942L56.0286 193.493L53.2013 193.599L55.8306 197.135L63.8139 194.193L63.8868 193.639ZM69.8713 210.153L63.3335 208.526L62.7302 210.972L60.5471 212.595L57.0961 213.165L59.2882 220.02L62.1155 219.914L65.8579 217.131L70.4107 216.74L69.8713 210.153ZM74.6607 225.061L71.3144 220.561L69.9212 222.595L69.8688 225.13L66.6568 226.021L64.7447 223.45L61.3141 226.001L66.5725 233.072L75.1592 227.685L74.6607 225.061ZM80.9161 237.38L77.5698 232.88L73.9526 232.575L72.3933 233.735L72.4866 235.163C71.894 236.103 70.5216 238.122 69.7731 238.678C69.0246 239.235 72.0108 242.339 73.5974 243.821L75.1567 242.661L81.3941 238.023L80.9161 237.38ZM87.5882 244.398L84.4809 240.22L80.8637 239.915L80.7385 243.003L75.7486 246.714L79.4796 250.428L87.5882 244.398ZM104.206 263.487L106.232 269.468L101.356 276.588L97.3855 272.552L99.7462 265.306L103.489 262.523L104.206 263.487ZM116.022 274.167L109.464 270.558L106.678 274.627L108.153 280.518L112.196 284.001L114.597 280.717L116.022 274.167ZM133.733 284.956L128.37 282.954L125.251 285.274L127.921 292.772L130.364 293.451L133.733 284.956ZM149.708 287.551L140.031 286.262L134.106 290.668L136.61 297.292L145.206 300.383L150.186 288.194L149.708 287.551ZM197.761 292.248L192.564 291.121L187.886 294.6L192.905 301.349L197.624 301.833L198.539 299.156L197.761 292.248ZM208.405 288.325L203.104 292.268L201.804 295.73L206.345 301.837L212.364 298.859L210.452 296.287L208.405 288.325ZM221.326 284.207L214.59 286.221L213.53 290.005L216.637 294.184L217.135 296.808L222.624 295.721L224.183 294.562L221.326 284.207ZM240.703 273.791L235.09 277.965L233.218 279.357L231.44 282.176L233.851 287.372L239.672 288.035L245.285 283.86L240.703 273.791ZM248.334 267.118L244.903 269.669L247.48 275.739L250.401 277.061L255.889 275.975L248.334 267.118ZM279.68 221.344L283.027 225.844L286.352 228.363L289.783 225.811L289.99 230.649L285.79 234.771L279.491 233.465L276.384 229.287L276.25 223.896L279.68 221.344ZM283.008 208.886L280.482 215.258L282.155 217.508L287.591 218.956L289.264 221.206L294.108 218.602L293.828 214.317L292.155 212.067L285.524 209.012L283.008 208.886ZM286.503 197.303L284.745 202.104L291.616 205.48L294.006 208.695L296.189 207.071L297.063 200.431L294.912 197.538L286.503 197.303ZM295.174 184.865L291.265 186.773L287.077 184.397L284.914 188.002L286.13 191.59L294.871 193.576L297.086 187.436L295.174 184.865ZM296.091 167.211L284.616 166.76L287.578 172.045L296.091 167.211ZM293.87 149.895L295.531 158.642L292.506 162.39L290.885 157.605L290.168 156.641L285.802 159.888L283.371 152.711L290.751 152.214L293.87 149.895ZM289.672 139.04L285.618 142.055L280.129 143.142L284.671 149.249L288.725 146.234L293.663 145.057L289.672 139.04ZM284.28 126.578L288.29 134.577L283.831 136.396L280.089 139.179L278.468 134.394L276.317 131.502L284.28 126.578ZM276.715 109.242L273.119 110.919L271.891 113.828L268.44 114.398L266.881 115.557L271.402 119.683L273.075 121.933L274.375 118.47L276.246 117.079L277.587 117.579L278.741 115.223L277.193 109.885L276.715 109.242ZM271.987 100.279L262.319 107.469L264.47 110.362L266.289 111.505L269.408 109.186L272.267 104.564L271.987 100.279ZM251.825 80.332L250.712 86.6506L246.97 89.4337L242.283 84.4336L246.867 79.5267L251.825 80.332ZM226.86 66.9516L225.28 66.1298L222.182 70.4304L218.918 73.8564L218.699 75.5164L225.31 76.5902L226.922 72.8958L228.149 69.9867L226.86 66.9516ZM206.728 57.4645L211.176 62.1432L209.252 66.0695L206.757 67.9249L202.33 65.2276L199.118 66.1188L202.362 60.7115L200.21 57.8188L201.604 55.7844L206.011 56.5003L206.728 57.4645Z" stroke="#A6CEFF" stroke-width="2" shape-rendering="crispEdges"/>
</g>
<path fill-rule="evenodd" clip-rule="evenodd" d="M178.5 314C254.439 314 316 252.439 316 176.5C316 100.561 254.439 39 178.5 39C102.561 39 41 100.561 41 176.5C41 252.439 102.561 314 178.5 314ZM178 306C249.797 306 308 248.245 308 177C308 105.755 249.797 48 178 48C106.203 48 48 105.755 48 177C48 248.245 106.203 306 178 306Z" fill="#A6CEFF"/>
<defs>
<filter id="filter0_d_10_28" x="45.8617" y="49.5923" width="257.772" height="263.286" filterUnits="userSpaceOnUse" color-interpolation-filters="sRGB">
<feFlood flood-opacity="0" result="BackgroundImageFix"/>
<feColorMatrix in="SourceAlpha" type="matrix" values="0 0 0 0 0 0 0 0 0 0 0 0 0 0 0 0 0 0 127 0" result="hardAlpha"/>
<feOffset dy="4"/>
<feGaussianBlur stdDeviation="2"/>
<feComposite in2="hardAlpha" operator="out"/>
<feColorMatrix type="matrix" values="0 0 0 0 0 0 0 0 0 0 0 0 0 0 0 0 0 0 0.25 0"/>
<feBlend mode="normal" in2="BackgroundImageFix" result="effect1_dropShadow_10_28"/>
<feBlend mode="normal" in="SourceGraphic" in2="effect1_dropShadow_10_28" result="shape"/>
</filter>
</defs>
</svg>
