<svg width="341" height="341" viewBox="0 0 341 341" fill="none" xmlns="http://www.w3.org/2000/svg">
<g opacity="0.8">
<path fill-rule="evenodd" clip-rule="evenodd" d="M341 170.5C341 264.665 264.665 341 170.5 341C76.3354 341 0 264.665 0 170.5C0 76.3354 76.3354 0 170.5 0C264.665 0 341 76.3354 341 170.5ZM333 170C333 260.022 260.022 333 170 333C79.9776 333 7 260.022 7 170C7 79.9776 79.9776 7 170 7C260.022 7 333 79.9776 333 170ZM166.055 10.1679L164.5 9.13148V11V26.5V27.5H165.5H170H170.193L170.371 27.4285L172.871 26.4285L173.5 26.177V25.5V20.5V20.3143L173.433 20.141L170.933 13.641L170.819 13.3443L170.555 13.1679L166.055 10.1679ZM166.5 25.5V12.8685L169.181 14.6557L171.5 20.6857V24.823L169.807 25.5H166.5ZM160.141 13.0101L149.641 11.5101L149.429 13H148V24V24.1926L148.072 24.3714L149.072 26.8714L149.426 27.7583L150.329 27.4445L161.829 23.4445L162.633 23.1648L162.485 22.3262L160.985 13.8262L160.859 13.1125L160.141 13.0101ZM150 23.8074V13.5816L159.141 14.8875L160.367 21.8352L150.574 25.2417L150 23.8074ZM178 12H177.18L177.019 12.8039L176.019 17.8039L175.946 18.171L176.132 18.4961L177.866 21.5315L176.106 25.0528L176 25.2639V25.5V28V29.2198L177.196 28.9806L184.599 27.5H188H189.804L188.848 25.97L186.5 22.2132V20.0352L187.555 19.3321L188.289 18.8424L187.894 18.0528L186.394 15.0528L186.221 14.7059L185.859 14.5667L179.359 12.0667L179.186 12H179H178ZM178.054 17.829L178.819 14.002L184.779 16.2941L185.711 18.1576L184.945 18.6679L184.5 18.9648V19.5V22.5V22.7868L184.652 23.03L186.196 25.5H184.5H184.401L184.304 25.5194L178 26.7802V25.7361L179.894 21.9472L180.134 21.4685L179.868 21.0039L178.054 17.829ZM131.237 15.8243L130.531 15.0544L129.793 15.7929L125.293 20.2929L124.925 20.6611L125.015 21.1738L126.515 29.6738L126.679 30.6035L127.617 30.4932L136.117 29.4932L137 29.3892V28.5V22.5V22.111L136.737 21.8243L131.237 15.8243ZM128.321 28.3965L127.075 21.3389L130.469 17.9456L135 22.889V27.6108L128.321 28.3965ZM201.179 17.5161L200.095 17.319L200.003 18.417L199.003 30.417L198.913 31.5H200H204.338L210.184 33.4487L211.5 33.8874V32.5V26.6231L212.97 20.7425L213.229 19.7071L212.179 19.5161L201.179 17.5161ZM201.087 29.5L201.905 19.681L210.771 21.2929L209.53 26.2575L209.5 26.3769V26.5V31.1126L204.816 29.5513L204.662 29.5H204.5H201.087ZM217.555 21.5015L216.5 21.4429V22.5V28.7804L213.592 35.0809L212.937 36.5H214.5H224H225V35.5V29.2L227.423 23.3846L227.967 22.0799L226.555 22.0015L217.555 21.5015ZM218.5 29V23.5571L225.033 23.9201L223.077 28.6154L223 28.8V29V34.5H216.063L218.408 29.4191L218.5 29.2196V29ZM118.86 24.2682L121.681 26.6191L123.586 30.9061L125.414 30.0939L123.414 25.5939L123.319 25.3809L123.14 25.2318L120.14 22.7318L118.86 24.2682ZM231.947 25.6056L230.5 24.882V26.5V31.2132L225.652 38.97L224.979 40.047L226.184 40.4487L235.184 43.4487L236.5 43.8874V42.5V36.5H236.838L242.684 38.4487L244.412 39.0247L243.97 37.2575L242.47 31.2575L242.359 30.8113L241.947 30.6056L231.947 25.6056ZM110.5 27H116.04L118.641 30.0346L119.831 32.8102L116.33 36.748L112.618 39.3471L111.473 34.7701L110.476 30.2831L110.429 30.0725L110.3 29.9L108.8 27.9L107.2 29.1L108.571 30.9275L109.524 35.2169L109.527 35.2298L109.53 35.2425L111.03 41.2425L111.382 42.6529L112.573 41.8192L117.573 38.3192L117.67 38.252L117.747 38.1644L121.747 33.6644L122.169 33.1898L121.919 32.6061L120.419 29.1061L120.359 28.9654L120.259 28.8492L117.259 25.3492L116.96 25H116.5H110.5V27ZM232.5 31.5V28.118L240.641 32.1887L241.588 35.9753L237.316 34.5513L237.162 34.5H237H235.5H234.5V35.5V41.1126L228.021 38.953L232.348 32.03L232.5 31.7868V31.5ZM98.7425 31.0299L98.3837 30.9401L98.0528 31.1056L96.0528 32.1056L95.2951 32.4844L95.5442 33.2941L97.5246 39.7303L98.5136 45.6644L98.5663 45.9805L98.7929 46.2071L100.293 47.7071L101 48.4142L101.707 47.7071L107.707 41.7071L108.24 41.1737L107.874 40.5144L105.374 36.0144L105.374 36.0143L105.368 36.0039L103.368 32.5039L103.157 32.1334L102.743 32.0299L98.7425 31.0299ZM97.7049 33.5156L98.6163 33.0599L101.843 33.8666L103.626 36.9856L103.632 36.9961L105.76 40.8263L101 45.5858L100.434 45.0195L99.4864 39.3356L99.4754 39.2697L99.4558 39.2059L97.7049 33.5156ZM251.493 37.6191L251.92 34.0636L249.712 36.8837L240.712 48.3837L239.635 49.7602L241.368 49.9912L248.868 50.9912L249.872 51.1251L249.993 50.1191L251.493 37.6191ZM248.128 48.8749L243.365 48.2398L249.08 40.9364L248.128 48.8749ZM82.8944 44.0528L82.578 43.42L81.876 43.5077L73.9377 44.5H72.5H72.0858L71.7929 44.7929L67.7929 48.7929L67.3559 49.2299L67.5513 49.8162L68.5513 52.8162L68.7792 53.5H69.5H73.323L76.0715 60.3714L77.0301 62.7678L77.9363 60.3511L79.2843 56.7565L84.8846 54.4231L85.5 54.1667V53.5V49.5V49.2639L85.3944 49.0528L82.8944 44.0528ZM74.124 46.4923L81.422 45.58L83.5 49.7361V52.8333L78.1154 55.0769L77.7157 55.2435L77.5637 55.6489L76.9699 57.2322L74.9285 52.1286L74.677 51.5H74H70.2208L69.6441 49.7701L72.9142 46.5H74H74.0623L74.124 46.4923ZM267.5 51H266.665L266.516 51.8211L265.61 56.8062L260.586 59.0896L259.717 59.4848L260.072 60.3714L262.072 65.3714L262.244 65.802L262.684 65.9487L267.184 67.4487L267.73 67.6307L268.162 67.2498L276.662 59.7498L277.306 59.1816L276.841 58.4592L272.341 51.4592L272.046 51H271.5H267.5ZM267.484 57.6789L268.335 53H270.954L274.694 58.8184L267.27 65.3693L263.756 64.198L262.283 60.5152L266.914 58.4104L267.39 58.1938L267.484 57.6789ZM65.1887 53.775L64.6802 53.2919L64.0528 53.6056L61.0528 55.1056L59.7441 55.7599L60.8291 56.7415L71.3291 66.2415L71.8788 66.7389L72.5145 66.3575L75.0145 64.8575L76.1422 64.1808L75.1887 63.275L65.1887 53.775ZM72.1212 64.2611L63.2559 56.2401L64.3198 55.7081L72.8577 63.8192L72.1212 64.2611ZM57.5 60.5V59.057L56.1489 59.5637L52.1489 61.0637L51.5 61.307V62V65.1972L50.6679 66.4453L50.0967 67.3022L50.97 67.848L54.8195 70.254L58.2106 74.6139L58.5109 75H59H61.5H61.8569L62.1332 74.774L67.6332 70.274L68.1355 69.863L67.9647 69.2369L66.4647 63.7369L66.2638 63H65.5H59.3508L57.5 61.5194V60.5ZM53.5 65.5V62.693L55.5 61.943V62V62.4806L55.8753 62.7809L58.3753 64.7809L58.6492 65H59H64.7362L65.8645 69.137L61.143 73H59.4891L56.2893 68.8861L56.1804 68.746L56.03 68.652L52.9033 66.6978L53.332 66.0547L53.5 65.8028V65.5ZM280 61H279.506L279.206 61.3926L272.706 69.8925L272.281 70.4475L272.656 71.0369L276.156 76.5369L276.652 77.3157L277.468 76.8838L285.748 72.5H290.5H291.5V71.5V68V67.5858L291.207 67.2929L285.207 61.2929L284.914 61H284.5H280ZM274.719 70.5525L280.494 63H284.086L289.5 68.4142V70.5H285.5H285.252L285.032 70.6162L277.348 74.6843L274.719 70.5525ZM50.332 70.4453C49.9347 69.8493 49.357 69.4698 48.6441 69.4394C48.0067 69.4122 47.4166 69.6736 46.9387 69.9723C45.9803 70.5713 44.9861 71.636 44.1125 72.6655C43.6644 73.1936 43.2265 73.7392 42.8201 74.2481L42.6817 74.4215L42.6813 74.4221C42.3251 74.8684 41.9983 75.2779 41.7023 75.6311C41.3878 76.0064 41.1395 76.2796 40.9552 76.4495C40.4449 76.3751 39.9733 76.5628 39.6478 76.7939C39.2173 77.0994 38.885 77.5697 38.7296 78.0877C38.57 78.6199 38.5781 79.2831 38.9692 79.8777C39.3572 80.4675 40.0115 80.8221 40.8039 80.9806C41.6027 81.1404 42.3379 81.1236 42.9089 81.0683C42.8546 81.2848 42.8333 81.5234 42.8827 81.7703C42.9982 82.3478 43.4234 82.664 43.8088 82.7924C44.1436 82.9041 44.4937 82.8989 44.7585 82.8748C45.0429 82.8489 45.3394 82.7897 45.6175 82.7201C46.11 82.597 46.6159 82.4235 47.0183 82.2727L48.6056 85.4472L48.7908 85.8177L49.1838 85.9487L52.1838 86.9487L53.5013 87.3879L53.5 86.0061L53.5 86.0057L53.5 86.003L53.5002 85.9985C53.5007 85.9867 53.5018 85.964 53.5044 85.932C53.5096 85.8677 53.5208 85.7681 53.5443 85.6451C53.592 85.3954 53.6861 85.0731 53.8663 84.7589C54.1897 84.1949 54.8631 83.5125 56.5076 83.5C57.075 83.4956 57.5919 83.4227 58.022 83.2328C58.4822 83.0296 58.8588 82.681 59.0289 82.1776C59.1852 81.715 59.1172 81.2644 59.016 80.9259C58.9125 80.5798 58.7438 80.2496 58.574 79.9647C58.3031 79.5098 57.9533 79.0501 57.6995 78.7167L57.6992 78.7163C57.6528 78.6553 57.6096 78.5986 57.5708 78.5469C57.5724 78.5347 57.5737 78.5232 57.5748 78.5126C57.6014 78.2577 57.5442 78.0173 57.5063 77.8787C57.418 77.5562 57.2497 77.161 57.0466 76.753C56.6318 75.9198 55.9798 74.8508 55.2048 73.8511C54.4401 72.8648 53.4971 71.8696 52.4834 71.2637C51.7305 70.8138 50.8129 70.5171 49.8964 70.7357L50.332 70.4453ZM43.3232 80.0478C43.3237 80.0453 43.3237 80.0442 43.3235 80.0444C43.3231 80.0448 43.3213 80.0513 43.3193 80.0631C43.3213 80.0559 43.3226 80.0508 43.3232 80.0478ZM47.9671 79.6981L47.0941 80.0861L48.5656 71.4381C48.5702 71.4409 48.6087 71.4659 48.6679 71.5547L49.0192 71.3205L50.0775 72.8163C50.3678 72.611 50.7654 72.567 51.4574 72.9805C52.1576 73.399 52.9196 74.1678 53.6242 75.0766C54.3185 75.9721 54.9002 76.9292 55.2562 77.6443C55.3597 77.8524 55.4372 78.026 55.4916 78.1622C55.4788 78.1942 55.4675 78.2269 55.4578 78.2604C55.3879 78.5012 55.4203 78.7067 55.4439 78.8112C55.4698 78.9258 55.509 79.0201 55.5382 79.0829C55.6393 79.3004 55.8152 79.5387 55.9395 79.7052C56.0052 79.7933 56.0727 79.8822 56.1408 79.9718C56.3911 80.3015 56.6492 80.6414 56.8558 80.9882C56.9662 81.1736 57.0399 81.3261 57.082 81.4445C56.964 81.4719 56.7761 81.4979 56.4923 81.5C54.1337 81.518 52.807 82.5856 52.1313 83.764C51.9478 84.0839 51.8185 84.4006 51.7271 84.6883L50.2092 84.1823L48.3944 80.5528L47.9671 79.6981ZM45.1933 79.6026L47.0941 80.0861L47.0938 80.0862L47.0927 80.0867L47.0852 80.09L47.0525 80.1042C47.0229 80.117 46.9786 80.136 46.9218 80.1598C46.8081 80.2075 46.6457 80.274 46.4535 80.3479C46.0813 80.4911 45.6202 80.6534 45.1943 80.7641C45.1999 80.7479 45.2054 80.7318 45.2106 80.7159C45.2702 80.5349 45.3697 80.1881 45.2717 79.8158C45.2527 79.7435 45.2267 79.6719 45.1933 79.6026ZM42.9911 79.0424C43.0812 79.03 43.1694 79.017 43.256 79.0042C43.4089 78.9816 43.5569 78.9597 43.702 78.9436C43.8473 78.9275 44.1074 78.9025 44.3675 78.9606C44.5129 78.9931 44.7098 79.062 44.8942 79.217C45.0263 79.328 45.1251 79.4607 45.1933 79.6026L42.9911 79.0424ZM42.9911 79.0424C42.4784 79.1126 41.903 79.1608 41.1961 79.0194C40.7385 78.9279 40.6427 78.7825 40.6401 78.7785C40.6358 78.772 40.6337 78.7672 40.6325 78.7555C40.6309 78.7403 40.6313 78.7088 40.6453 78.6623C40.6678 78.5875 40.7107 78.52 40.7529 78.473L42.9911 79.0424ZM55.5874 78.4502C55.5872 78.4499 55.5865 78.4465 55.5857 78.4405C55.5872 78.4476 55.5876 78.4507 55.5874 78.4502ZM44.8477 81.5586C44.8477 81.5586 44.8481 81.5566 44.8493 81.5525C44.8485 81.5565 44.8478 81.5586 44.8477 81.5586ZM292.5 75H292.238L292.01 75.1284L284.01 79.6284L283.84 79.7236L283.719 79.8753L281.719 82.3753L281.285 82.9183L281.643 83.5145L286.143 91.0145L286.434 91.5H287H290.5H290.857L291.133 91.274L296.357 87H299.5H300.367L300.49 86.1414L301.49 79.1414L301.579 78.5175L301.055 78.168L296.555 75.168L296.303 75H296H292.5ZM285.16 81.2763L292.762 77H295.697L299.421 79.4825L298.633 85H296H295.643L295.367 85.226L290.143 89.5H287.566L283.715 83.0818L285.16 81.2763ZM38.0671 86.5H37.2598L37.0896 87.2891L37.0274 87.5776C36.9667 87.5567 36.9058 87.5368 36.8449 87.5183C36.5822 87.4384 36.2665 87.3662 35.9489 87.3626C35.6508 87.3592 35.1702 87.4156 34.7929 87.7929L34.3629 88.2229L32.9453 89.168L32.5 89.4648V90V93.5V94.3198L33.3039 94.4806L34.0921 94.6382L32.47 95.652L31.9038 96.0058L32.0136 96.6644L32.5136 99.6644L32.6126 100.258L33.1838 100.449L34.2908 100.818L34.6056 101.447L34.882 102H35.5H36.5H37.118L37.3944 101.447L37.7766 100.683L38.2949 100.334L38.3016 100.33L39.0514 99.8342L39.2747 99.6866L39.3944 99.4472L39.7454 98.7454L40.4472 98.3944L40.5924 98.3219L40.6975 98.2168L40.9076 98.3218L42.2929 99.7071L42.3629 99.7771L42.4453 99.832L43.9453 100.832L44.1972 101H44.5H46H46.618L46.8944 100.447L47.3772 99.4816L48.8575 97.0145L49 96.777V96.5V95H49.5H50.6328L50.4923 93.876L49.9923 89.876L49.9355 89.4218L49.5547 89.1679L48.2211 88.2789L47.3321 86.9453L47.0352 86.5H46.5H38.0671ZM38.7211 89.2109L38.8744 88.5H45.9648L46.6679 89.5547L46.7789 89.7211L46.9453 89.8321L48.0645 90.5782L48.3672 93H48H47V94V96.223L45.6425 98.4855L45.6227 98.5184L45.6056 98.5528L45.382 99H44.8028L43.6371 98.2229L42.2071 96.7929L42.0924 96.6781L41.9472 96.6056L40.9472 96.1056L40.3025 95.7832L39.7929 96.2929L39.4076 96.6782L38.5528 97.1056L38.2546 97.2546L38.1056 97.5528L37.7253 98.3134L37.1921 98.6658L37.1855 98.6702L36.442 99.1702L36.2234 99.3172L36.1056 99.5528L36 99.7639L35.8944 99.5528L35.7092 99.1823L35.3162 99.0513L34.3874 98.7417L34.0962 96.9942L37.53 94.848L40.4868 93H37H36.099L34.5 92.6802V90.5352L35.5547 89.832L35.6371 89.7771L35.7071 89.7071L36.0386 89.3756C36.0958 89.386 36.1704 89.4036 36.2627 89.4317C36.6073 89.5365 36.9974 89.7249 37.246 89.8674L38.4326 90.548L38.7211 89.2109ZM35.9106 89.3629C35.9105 89.3628 35.9133 89.3625 35.9195 89.3624C35.9138 89.363 35.9107 89.3631 35.9106 89.3629ZM305.073 88.1808L303.5 87.0793V89V93.756L299.353 95H292.5H291.5V96V101.5V102.009L291.912 102.309L297.412 106.309L297.675 106.5H298H304.5H304.889L305.176 106.237L311.176 100.737L311.56 100.385L311.491 99.8678L310.491 92.3678L310.433 91.9326L310.073 91.6808L305.073 88.1808ZM305.5 94.5V90.9206L308.567 93.0674L309.44 99.6153L304.111 104.5H298.325L293.5 100.991V97H299.5H299.647L299.787 96.9578L304.787 95.4578L305.5 95.244V94.5ZM29.7071 101.293L28.9061 100.492L28.2106 101.386L24.7106 105.886L24.2681 106.455L24.6679 107.055L25.6679 108.555L25.9648 109H26.5H29.7639L33.4721 110.854L35.2112 112.158L35.6056 112.947L35.882 113.5H36.5H37.7435H38.4089L38.6659 112.886L39.9224 109.886L39.978 109.754L39.9939 109.61L40.4939 105.11L40.5647 104.473L40.0145 104.143L37.5145 102.643L37.3096 102.52L37.0712 102.503L30.4433 102.029L29.7071 101.293ZM26.7319 106.545L29.0939 103.508L29.2929 103.707L29.5567 103.971L29.9288 103.997L36.6904 104.48L38.4353 105.527L38.022 109.246L37.0964 111.457L36.8944 111.053L36.7889 110.842L36.6 110.7L34.6 109.2L34.5279 109.146L34.4472 109.106L30.4472 107.106L30.2361 107H30H27.0352L26.7319 106.545ZM23.6789 115.516L23.1634 115.422L22.7929 115.793L19.7929 118.793L17.732 120.854L20.624 120.492L24.1986 120.045L29.3668 124.274L29.643 124.5H30H33H34.8685L33.8321 122.945L29.8321 116.945L29.5966 116.592L29.1789 116.516L23.6789 115.516ZM23.268 118.146L23.8366 117.578L28.4034 118.408L31.1315 122.5H30.357L25.1332 118.226L24.8014 117.955L24.376 118.008L23.268 118.146ZM319.617 118.713L318.92 118.166L318.293 118.793L314.086 123H308.266L304.996 121.132L304.004 122.868L307 124.58V134V134.677L307.629 134.928L315.129 137.928L315.478 138.068L315.833 137.943L324.333 134.943L324.746 134.797L324.919 134.394L326.419 130.894L326.544 130.603L326.478 130.293L324.978 123.213L324.903 122.858L324.617 122.633L319.617 118.713ZM309 133.323V125H314.5H314.914L315.207 124.707L319.08 120.834L323.097 123.983L324.456 130.397L323.254 133.203L315.522 135.932L309 133.323ZM24.2944 124.393L23.7345 123.66L22.9592 124.159L15.9592 128.659L15.5 128.954V129.5V133.086L12.7929 135.793L11.9919 136.594L12.8861 137.289L17.3861 140.789L17.5602 140.925L17.7751 140.974L24.2751 142.474L24.5493 142.538L24.8162 142.449L27.8162 141.449L28.278 141.295L28.4417 140.836L30.9417 133.836L31.1246 133.324L30.7944 132.893L24.2944 124.393ZM17.5 133.5V130.046L23.2655 126.34L28.8754 133.676L26.722 139.705L24.4507 140.462L18.4398 139.075L15.0081 136.406L17.2071 134.207L17.5 133.914V133.5ZM321.5 140H321.368L321.24 140.035L312.681 142.343L311.026 142.725L311.256 143.725L314.026 155.725L314.166 156.334L314.775 156.474L321.275 157.974L321.782 158.091L322.169 157.743L327.169 153.243L327.462 152.979L327.496 152.587L328.496 141.087L328.591 140H327.5H321.5ZM315.834 154.666L313.422 144.214L321.632 142H326.409L325.538 152.02L321.218 155.909L315.834 154.666ZM12.5 144.5H11.6978L11.5238 145.283L8.52381 158.783L8.30222 159.78L9.30388 159.981L14.3039 160.981L14.4461 161.009L14.5905 160.996L25.5905 159.996L26.1096 159.949L26.3682 159.496L28.3682 155.996L28.6338 155.531L28.3944 155.053L26.4046 151.073L24.4138 146.594L24.191 146.092L23.6483 146.011C21.9796 145.761 19.4262 145.385 17.1886 145.072C16.0702 144.916 15.0274 144.774 14.2122 144.672C13.4361 144.574 12.7788 144.5 12.5 144.5ZM10.6978 158.22L13.2857 146.574C13.4844 146.597 13.7114 146.625 13.9628 146.656C14.7643 146.757 15.7965 146.897 16.9114 147.053C18.9103 147.333 21.1645 147.663 22.8092 147.908L24.5862 151.906L24.5954 151.927L24.6056 151.947L26.3662 155.469L24.8904 158.051L14.5539 158.991L10.6978 158.22ZM330.408 162.919L331.115 161.386L329.431 161.502L314.931 162.502L314 162.567V163.5V169V169.781L314.757 169.97L322.757 171.97L323.147 172.068L323.496 171.868L326.996 169.868L327.274 169.71L327.408 169.419L330.408 162.919ZM316 168.219V164.433L327.885 163.614L325.726 168.29L322.853 169.932L316 168.219ZM9.72904 163.527L8.5 163.237V164.5V179V180.146L9.63511 179.991L20.6351 178.491L20.8321 178.464L21.0039 178.364L27.0039 174.864L27.921 174.329L27.3321 173.445L26.3321 171.945L26.2459 171.816L26.1247 171.719L18.6247 165.719L18.4486 165.578L18.229 165.527L9.72904 163.527ZM10.5 177.854V165.763L17.5514 167.422L24.7541 173.184L25.079 173.671L20.1679 176.536L10.5 177.854ZM316.217 175.524L315 175.253V176.5V185.5V188.5V188.681L315.064 188.851L316.564 192.851L316.756 193.363L317.29 193.478L324.29 194.978L324.853 195.098L325.24 194.673L330.24 189.173L330.5 188.887V188.5V179.5V178.698L329.717 178.524L316.217 175.524ZM317 185.5V177.747L328.5 180.302V188.113L324.147 192.902L318.244 191.637L317 188.319V185.5ZM22.7071 183.793L21.7697 182.855L21.1258 184.014L18.9116 188H12.5H11.5V189V192.5V193.5H12.5H26.5H27.5V192.5V189V188.586L27.2071 188.293L22.7071 183.793ZM20.3742 189.486L22.2303 186.145L25.5 189.414V191.5H13.5V190H19.5H20.0884L20.3742 189.486ZM21.3437 196.963L20.7639 196.052L19.9 196.7L15.9 199.7L15.3839 200.087L15.5238 200.717L16.5238 205.217L16.7185 206.093L17.6104 205.994L22.1104 205.494L22.3817 205.464L22.6 205.3L24.6 203.8L25.3408 203.244L24.8437 202.463L21.3437 196.963ZM18.2815 203.907L17.6161 200.913L20.2361 198.948L22.6592 202.756L21.6183 203.536L18.2815 203.907ZM312.371 203.572L311.404 203.185L311.057 204.167L308.057 212.667L307.879 213.172L308.2 213.6L311.2 217.6L311.5 218H312H318.264L321.053 219.394L321.976 219.856L322.408 218.919L325.408 212.419L325.5 212.22V212V209.5V208.823L324.871 208.572L312.371 203.572ZM310.121 212.828L312.596 205.816L323.5 210.177V211.78L321.024 217.144L318.947 216.106L318.736 216H318.5H312.5L310.121 212.828ZM28.3944 207.053L28.0423 206.349L27.2751 206.526L14.2751 209.526L14.7249 211.474L26.9577 208.651L27.6825 210.101L21.5039 213.632L21.3383 213.726L21.2191 213.875L18.2911 217.535L15.9285 211.629L14.0715 212.371L17.0715 219.871L17.1607 220.094L17.3415 220.253L21.3415 223.753L22.1722 224.479L22.8137 223.581L25.3137 220.081L25.6637 219.591L25.3944 219.053L23.3175 214.899L29.4961 211.368L30.3175 210.899L29.8944 210.053L28.3944 207.053ZM21.8278 221.521L19.3786 219.378L21.8045 216.345L23.3363 219.409L21.8278 221.521ZM33.9959 217.409L33.8632 215.95L32.5528 216.606L28.5528 218.606L28 218.882V219.5V226.246L21.7253 228.038L20.812 228.299L21.0256 229.225L22.5256 235.725L22.7845 236.847L23.859 236.433L30.1857 234H38.5H39.2808L39.4701 233.243L40.4701 229.243L40.6075 228.693L40.2071 228.293L34.4631 222.549L33.9959 217.409ZM30 227V220.118L32.1368 219.05L32.5041 223.091L32.5369 223.451L32.7929 223.707L38.3925 229.307L37.7192 232H30H29.8143L29.641 232.067L24.2155 234.153L23.188 229.701L29.2747 227.962L30 227.754V227ZM306.888 220.078L305.5 219.494V221V229.5V229.787L305.652 230.03L308.152 234.03L308.446 234.5H309H318.5H319.339L319.485 233.674L320.985 225.174L321.192 224H320H316.202L306.888 220.078ZM307.5 229.213V222.506L315.612 225.922L315.798 226H316H318.808L317.661 232.5H309.554L307.5 229.213ZM303.014 234.143L302.381 233.762L301.831 234.257L296.831 238.757L296.5 239.055V239.5V247V248H297.5H308H308.449L308.747 247.664L312.747 243.164L313.26 242.587L312.832 241.945L310.832 238.945L310.707 238.758L310.514 238.643L303.014 234.143ZM298.5 239.945L302.619 236.238L309.293 240.242L310.74 242.413L307.551 246H298.5V239.945ZM37.7435 239H37.4741L37.2411 239.135L29.4976 243.635L28.6856 244.107L29.1056 244.947L34.1056 254.947L34.6014 255.939L35.5369 255.344L46.5369 248.344L47.2364 247.898L46.9285 247.129L43.9285 239.629L43.677 239H43H37.7435ZM31.3144 244.893L38.013 241H42.323L44.7636 247.102L35.3986 253.061L31.3144 244.893ZM57.9353 262.825L58.0801 262.924L56.1323 267.971L52.2526 272.336L51.6262 273.04L52.2929 273.707L59.7426 281.157L62.7 285.1L62.8132 285.251L62.9736 285.35L73.4736 291.85L74.5 292.486V296V296.472L74.8643 296.772L83.3643 303.772L84.1513 304.42L84.784 303.621L94.284 291.621L95.0891 290.604L93.9008 290.084L86.5 286.846V284.5V282.579L84.9265 283.681L75.2317 290.467L78.4487 280.816L78.7415 279.938L77.8881 279.578L69 275.836V268.5V267.973L68.5647 267.675L59.8627 261.721L59.0647 261.175L58.3712 262.188L58.3651 262.186L58.3551 262.212L57.9353 262.825ZM57.9329 268.86L59.776 264.085L66.6435 268.784L60.3182 278.904L54.3738 272.96L57.7474 269.164L57.8677 269.029L57.9329 268.86ZM61.7114 280.449L67 271.987V276.238L63.3801 282.673L61.7114 280.449ZM64.8417 284.154L68.4342 277.768L76.2585 281.062L73.4512 289.484L64.8417 284.154ZM287.162 261.75L286.656 261.304L286.053 261.606L276.053 266.606L275.85 266.707L275.711 266.886L268.711 275.886L268.367 276.327L268.564 276.851L271.564 284.851L271.764 285.386L272.326 285.485L280.826 286.985L281.366 287.08L281.737 286.676L287.237 280.676L287.735 280.133L287.364 279.496L284.92 275.307L289.348 275.988L289.82 276.061L290.173 275.74L295.673 270.74L296.499 269.989L295.662 269.25L287.162 261.75ZM289.18 273.939L283.476 273.061L278.188 267.774L286.344 263.696L293.501 270.011L289.18 273.939ZM270.633 276.672L276.594 269.008L282.201 274.616L285.265 279.867L280.634 284.92L273.236 283.614L270.633 276.672ZM262 280H261.569L261.273 280.313L252.773 289.313L252.5 289.602V290V299.5V300.248L253.218 300.459L261.718 302.959L262.173 303.093L262.565 302.825L272.065 296.325L272.834 295.799L272.363 294.994L263.863 280.494L263.573 280H263H262ZM254.5 290.398L262.429 282.003L270.166 295.201L261.827 300.907L254.5 298.752V290.398ZM76.5 295.528V292.021L84.5 286.421V287.5V288.154L85.0992 288.416L91.9109 291.396L83.8488 301.58L76.5 295.528ZM248.357 294.986L247.818 294.086L246.945 294.668L240.945 298.668L240.5 298.965V299.5V304.5V305.233L241.199 305.454L250.699 308.454L251.208 308.614L251.625 308.281L254.125 306.281L254.807 305.735L254.357 304.986L248.357 294.986ZM94.348 295.47L93.575 294.233L92.7 295.4L89.7 299.4L89.5 299.667V300V302V303H90.5H93.5H93.8508L94.1247 302.781L96.6247 300.781L97 300.481V305.197L95.168 307.945L94.1315 309.5H96H101.5H102.254L102.462 308.775L105.462 298.275L105.623 297.709L105.207 297.293L104.707 296.793L104.234 296.319L103.615 296.577L97.6154 299.077L97 299.333V299.713L96.848 299.47L94.348 295.47ZM242.5 303.767V300.035L247.182 296.914L252.193 305.265L250.792 306.386L242.5 303.767ZM93.425 297.767L91.5 300.333V301H93.1492L94.6802 299.775L93.425 297.767ZM103.198 298.918L99 300.667V305.5V305.803L98.832 306.055L97.8685 307.5H100.746L103.198 298.918ZM125.541 303.159L124.919 302.759L124.354 303.237L117.854 308.737L117.111 309.365L117.719 310.125L119.5 312.351V315.264L117.606 319.053L117.099 320.066L118.167 320.443L126.667 323.443L127.401 323.702L127.832 323.055L129.832 320.055L130 319.803V319.5V313.777L132.857 309.014L133.356 308.183L132.541 307.659L125.541 303.159ZM119.889 309.635L125.081 305.241L130.644 308.817L128.143 312.986L128 313.223V313.5V319.197L126.599 321.298L119.901 318.934L121.394 315.947L121.5 315.736V315.5V312V311.649L121.281 311.375L119.889 309.635ZM224.263 304.854L223.768 304.269L223.074 304.595L214.574 308.595L213.77 308.973L214.051 309.816L216.051 315.816L216.193 316.242L216.606 316.419L223.606 319.419L223.906 319.548L224.225 319.474L230.725 317.974L231.764 317.734L231.458 316.713L229.958 311.713L229.898 311.513L229.763 311.354L224.263 304.854ZM217.807 314.758L216.23 310.027L223.232 306.731L228.102 312.487L229.236 316.266L224.094 317.452L217.807 314.758ZM202.5 308.5H201.5V309.5V315.5V315.811L201.676 316.067L207.176 324.067L207.527 324.578L208.141 324.49L215.141 323.49L216.328 323.32L215.949 322.184L212.449 311.684L212.291 311.209L211.816 311.051L204.316 308.551L204.162 308.5H204H202.5ZM203.5 315.189V310.5H203.838L210.709 312.791L213.672 321.68L208.473 322.422L203.5 315.189ZM136.5 309.5H135.113L135.551 310.816L136.551 313.816L136.645 314.096L136.875 314.281L138.809 315.828L137.807 318.5H134.5H133.5V319.5V325V326H134.5H145.5H146.426L146.497 325.077L147.497 312.077L147.549 311.406L146.947 311.106L143.947 309.606L143.736 309.5H143.5H136.5ZM138.355 312.904L137.887 311.5H143.264L145.451 312.594L144.574 324H135.5V320.5H138.5H139.193L139.436 319.851L140.936 315.851L141.191 315.172L140.625 314.719L138.355 312.904ZM166 311H165.54L165.241 311.349L162.5 314.547V313.5V312.5H161.5H160.5H153.5H153.04L152.741 312.849L149.741 316.349L149.5 316.63V317V319.5V320.035L149.945 320.332L151.175 321.152C151.41 321.799 151.717 322.699 151.978 323.583C152.297 324.662 152.5 325.567 152.5 326C152.5 326.6 152.863 326.999 153.203 327.212C153.515 327.408 153.882 327.505 154.202 327.561C154.858 327.677 155.7 327.681 156.552 327.636C158.28 327.545 160.328 327.237 161.684 326.983L162.5 326.83V326V323.5V316.385L165 318.468V326V327.166L166.152 326.988L172.652 325.988L173.5 325.858V325V312V311H172.5H166ZM164.419 315.381L166.46 313H171.5V324.142L167 324.834V318V317.532L166.64 317.232L164.419 315.381ZM189.5 311H189.055L188.757 311.331L184.555 316H183H182.133L182.01 316.859L180.51 327.359L182.49 327.641L183.867 318H184.36L187.092 323.919L187.302 324.373L187.79 324.478L194.783 325.976L194.79 325.978L199.283 326.976L200.5 327.247V326V323.5V323.167L200.3 322.9L197.436 319.081L195.981 311.804L195.82 311H195H189.5ZM188.698 322.627L186.184 317.179L189.945 313H194.18L195.519 319.696L195.564 319.919L195.7 320.1L198.5 323.833V324.753L195.217 324.024L195.21 324.022L188.698 322.627ZM151.5 317.37L153.96 314.5H160.5V323.5V325.161C159.271 325.367 157.746 325.571 156.448 325.639C155.633 325.682 154.975 325.667 154.548 325.592C154.522 325.587 154.498 325.582 154.476 325.578C154.399 324.838 154.151 323.879 153.897 323.017C153.576 321.931 153.193 320.833 152.936 320.149L152.823 319.847L152.555 319.668L151.5 318.965V317.37Z" fill="#A6CEFF"/>
</g>
</svg>
