<svg width="216" height="209" viewBox="0 0 216 209" fill="none" xmlns="http://www.w3.org/2000/svg">
<path d="M11.5 141.5C1.54346 122.502 0.355848 109.146 3.99996 94.5C10.016 108.22 16.1979 114.384 27 125.5C18.8057 128.779 16.6868 134.05 11.5 141.5Z" stroke="#A6CEFF" stroke-width="3"/>
<path d="M204 75.5C213.956 94.4981 215.644 105.854 212 120.5C205.984 106.78 202.802 99.6159 192 88.4999C197 83.5 197 83.5 204 75.5Z" stroke="#A6CEFF" stroke-width="3"/>
<path d="M80.8471 8.40592C59.7411 12.2261 52.8147 14.6248 43.5 26.4999C58.0208 22.8145 63.012 25.785 77.75 30.4662C75.3008 21.987 78.1574 17.076 80.8471 8.40592Z" stroke="#A6CEFF" stroke-width="3"/>
<path d="M30.5 36C45.9362 29.8926 57.1086 30.6253 79.5 36L80.5 50C75.5457 49.7422 68.5 57 68 55C67.5 53 35.1667 30.3265 30.5 36Z" stroke="#A6CEFF" stroke-width="3"/>
<path d="M184 182.349C169.972 183.687 135 182.349 135 182.349C135 182.349 136.749 173.55 134 168.349C138.954 168.607 146 161.349 146.5 163.349C147 165.349 179.333 188.023 184 182.349Z" stroke="#A6CEFF" stroke-width="3"/>
<path d="M4.69044 74.4924C4.29681 91.5749 16 105.5 33 121.5L44.5 116C42.2127 111.584 42.9358 99.2101 40.5568 99.714C38.1778 100.218 0.406626 81.4978 4.69044 74.4924Z" stroke="#A6CEFF" stroke-width="3"/>
<path d="M207.923 140.915C210.83 124.077 201.306 108.579 186.85 90.2488L171.5 100C173.112 104.705 170.573 116.837 173 116.689C175.428 116.541 213.193 134.617 207.923 140.915Z" stroke="#A6CEFF" stroke-width="3"/>
<path d="M40.5 188.5C52.5 183.5 56.5 181 62.5 172L79 181V207C63.2208 202.912 54.7077 199.205 40.5 188.5Z" stroke="#A6CEFF" stroke-width="2"/>
<path d="M174.5 27.5001C162.5 32.5001 158.5 35.0001 152.5 44.0001L136 35.0001V9.00012C151.779 13.0886 160.292 16.795 174.5 27.5001Z" stroke="#A6CEFF" stroke-width="2"/>
<path d="M136 206C139.841 200.065 141.354 196.234 141 187C153.422 191.141 160.585 191.68 174 187C162.119 197.338 153.716 201.417 136 206Z" stroke="#A6CEFF" stroke-width="2"/>
</svg>
