<svg width="254" height="277" viewBox="0 0 254 277" fill="none" xmlns="http://www.w3.org/2000/svg">
<path d="M105.124 233.455C106.538 237.986 133.898 254.159 149 235.84C142.841 251.475 138.453 259.864 128.558 274C114.593 259.349 103.709 228.925 105.124 233.455Z" stroke="#A6CEFF" stroke-width="3"/>
<path d="M194.47 205.485C199.244 206.816 228.212 192.635 220.035 169.587C230.61 183.547 235.706 191.957 242.956 208.25C222.497 211.916 189.696 204.154 194.47 205.485Z" stroke="#A6CEFF" stroke-width="3"/>
<path d="M219.58 103.015C222.315 98.8819 217.731 66.9574 193.285 67.6488C209.821 61.8796 217.267 62.387 235 60.5C232.195 81.094 216.845 107.149 219.58 103.015Z" stroke="#A6CEFF" stroke-width="3"/>
<path d="M150.414 45.4992C148.949 40.7642 121.348 24.0801 106.391 43.4296C112.407 26.9816 116.722 18.145 126.499 3.23106C140.653 18.4508 151.878 50.2342 150.414 45.4992Z" stroke="#A6CEFF" stroke-width="3"/>
<path d="M56.8234 73.3558C52.2469 72.3535 24.7311 88.1565 32.8039 110.296C22.542 97.2473 17.5783 89.3042 10.4677 73.7479C29.9727 68.8308 61.4 74.358 56.8234 73.3558Z" stroke="#A6CEFF" stroke-width="3"/>
<path d="M35.5552 176.413C32.9917 180.655 38.8763 212.365 63.2739 210.675C46.9873 217.115 37.5177 219.767 19.8765 222.377C21.8372 201.685 38.1188 172.171 35.5552 176.413Z" stroke="#A6CEFF" stroke-width="3"/>
</svg>
